<svg width="32" height="32" viewBox="0 0 32 32" fill="none" xmlns="http://www.w3.org/2000/svg">
<path d="M3.50245 27.9939C3.50245 28.2732 3.73557 28.4997 4.02317 28.4997L27.9752 28.4998C28.2628 28.4998 28.4959 28.2733 28.4959 27.994V27.39C28.5079 27.2079 28.5322 26.2994 27.9334 25.2951C27.5558 24.6618 27.0078 24.1147 26.3045 23.669C25.4537 23.1299 24.3714 22.7392 23.0623 22.504C23.0526 22.5028 22.082 22.3741 21.0876 22.1202C19.3559 21.6778 19.2045 21.2864 19.2036 21.2826C19.1934 21.2439 19.1786 21.2067 19.1597 21.1718C19.1456 21.0988 19.1106 20.824 19.1775 20.0877C19.3474 18.2175 20.3505 17.1123 21.1566 16.2242C21.4108 15.9442 21.6509 15.6796 21.8358 15.4202C22.6334 14.3011 22.7074 13.0286 22.7107 12.9498C22.7107 12.79 22.6924 12.6586 22.6531 12.5368C22.5748 12.2931 22.4275 12.1413 22.3199 12.0304L22.3192 12.0296C22.2921 12.0017 22.2665 11.9753 22.2456 11.951C22.2376 11.9417 22.2164 11.9172 22.2357 11.7912C22.3065 11.3275 22.349 10.9392 22.3694 10.5692C22.4057 9.91015 22.4341 8.92449 22.2641 7.96522C22.2431 7.8014 22.207 7.62837 22.1509 7.42226C21.9713 6.76169 21.6828 6.19693 21.2818 5.73083C21.2129 5.65582 19.5366 3.88975 14.6703 3.52739C13.9974 3.47729 13.3322 3.50428 12.6774 3.53775C12.5195 3.54555 12.3034 3.55626 12.1012 3.60866C11.5988 3.73881 11.4647 4.05727 11.4295 4.23551C11.3711 4.53073 11.4737 4.76038 11.5415 4.91237V4.91239V4.91241C11.5514 4.93444 11.5636 4.96168 11.5423 5.03263C11.4293 5.20757 11.2516 5.36529 11.0705 5.51471C11.0181 5.55922 9.79783 6.61139 9.73073 7.98587C9.54981 9.0312 9.56349 10.6599 9.77744 11.7855C9.78987 11.8477 9.80823 11.9398 9.77842 12.0019C9.54836 12.2081 9.28757 12.4418 9.28823 12.975C9.29099 13.0286 9.365 14.3011 10.1626 15.4202C10.3474 15.6794 10.5872 15.9438 10.8413 16.2236L10.8418 16.2242V16.2243C11.6479 17.1123 12.651 18.2175 12.8209 20.0876C12.8878 20.8239 12.8528 21.0988 12.8386 21.1717C12.8197 21.2067 12.805 21.2438 12.7949 21.2825C12.7938 21.2863 12.643 21.6765 10.9192 22.1179C9.92474 22.3726 8.94573 22.5027 8.91652 22.5069C7.64434 22.7217 6.56867 23.1026 5.71942 23.6389C5.01851 24.0816 4.46944 24.6297 4.08743 25.268C3.47709 26.2878 3.49359 27.2167 3.50245 27.3862V27.9939Z" fill="#333333" stroke="#333333" stroke-width="2" stroke-linejoin="round"/>
</svg>
