<svg width="46" height="43" viewBox="0 0 46 43" fill="none" xmlns="http://www.w3.org/2000/svg">
<path d="M36.2203 14.3333H9.53153C6.367 14.3333 3.8125 16.7342 3.8125 19.7083V30.4583H11.4379V37.625H34.314V30.4583H41.9393V19.7083C41.9393 16.7342 39.3848 14.3333 36.2203 14.3333ZM30.5013 34.0417H15.2506V25.0833H30.5013V34.0417ZM36.2203 21.5C35.1718 21.5 34.314 20.6937 34.314 19.7083C34.314 18.7229 35.1718 17.9167 36.2203 17.9167C37.2688 17.9167 38.1267 18.7229 38.1267 19.7083C38.1267 20.6937 37.2688 21.5 36.2203 21.5ZM34.314 5.375H11.4379V12.5417H34.314V5.375Z" fill="white"/>
</svg>
