<svg width="24" height="24" viewBox="0 0 24 24" fill="none" xmlns="http://www.w3.org/2000/svg">
<path d="M6 23.1429C6 22.6714 6.38571 22.2857 6.85714 22.2857H19.7143C21.1371 22.2857 22.2857 21.1371 22.2857 19.7143V4.28571C22.2857 2.86286 21.1371 1.71429 19.7143 1.71429H6.85714C6.38571 1.71429 6 1.32857 6 0.857143C6 0.385714 6.38571 0 6.85714 0H19.7143C22.08 0 24 1.92 24 4.28571V19.7143C24 22.08 22.08 24 19.7143 24H6.85714C6.38571 24 6 23.6143 6 23.1429Z" fill="white"/>
<path d="M16.5982 13.1451L12.759 16.9754C12.4107 17.3237 12.4107 17.895 12.759 18.2432C13.1072 18.5914 13.6785 18.5914 14.0268 18.2432L19.3839 12.8861C19.7321 12.5379 19.7321 11.9665 19.3839 11.6183L14.0268 6.26116C13.6785 5.91295 13.1072 5.91295 12.759 6.26116C12.4107 6.60937 12.4107 7.18073 12.759 7.52895L16.5982 11.3593H0.892857C0.401786 11.3593 0 11.7611 0 12.2522C0 12.7433 0.401786 13.1451 0.892857 13.1451H16.5982Z" fill="white"/>
</svg>
