<svg width="22" height="22" viewBox="0 0 22 22" fill="none" xmlns="http://www.w3.org/2000/svg">
<path d="M15.7292 13.9167H14.7685L14.4362 13.5844C15.6204 12.2129 16.3333 10.4306 16.3333 8.47917C16.3333 4.14125 12.8171 0.625 8.47917 0.625C4.14125 0.625 0.625 4.14125 0.625 8.47917C0.625 12.8171 4.14125 16.3333 8.47917 16.3333C10.4306 16.3333 12.2129 15.6204 13.5844 14.4423L13.9167 14.7746V15.7292L19.9583 21.7587L21.7587 19.9583L15.7292 13.9167ZM8.47917 13.9167C5.47646 13.9167 3.04167 11.4819 3.04167 8.47917C3.04167 5.47646 5.47646 3.04167 8.47917 3.04167C11.4819 3.04167 13.9167 5.47646 13.9167 8.47917C13.9167 11.4819 11.4819 13.9167 8.47917 13.9167Z" fill="black"/>
</svg>
