<svg width="26" height="26" viewBox="0 0 26 26" fill="none" xmlns="http://www.w3.org/2000/svg">
<path d="M13 17.0625C10.7575 17.0625 8.9375 15.2425 8.9375 13C8.9375 10.7575 10.7575 8.9375 13 8.9375C15.2425 8.9375 17.0625 10.7575 17.0625 13C17.0625 15.2425 15.2425 17.0625 13 17.0625ZM13 10.5625C11.6567 10.5625 10.5625 11.6567 10.5625 13C10.5625 14.3433 11.6567 15.4375 13 15.4375C14.3433 15.4375 15.4375 14.3433 15.4375 13C15.4375 11.6567 14.3433 10.5625 13 10.5625Z" fill="white"/>
<path d="M16.4773 24.0392C16.2498 24.0392 16.0223 24.0067 15.7948 23.9525C15.1232 23.7683 14.5598 23.3458 14.2023 22.75L14.0723 22.5333C13.4332 21.4283 12.5557 21.4283 11.9165 22.5333L11.7973 22.7392C11.4398 23.3458 10.8765 23.7792 10.2048 23.9525C9.52234 24.1367 8.81817 24.0392 8.22234 23.6817L6.359 22.6092C5.69817 22.23 5.2215 21.6125 5.01567 20.865C4.82067 20.1175 4.91817 19.3483 5.29734 18.6875C5.6115 18.135 5.69817 17.6367 5.514 17.3225C5.32984 17.0083 4.864 16.8242 4.22484 16.8242C2.64317 16.8242 1.354 15.535 1.354 13.9533V12.0467C1.354 10.465 2.64317 9.17583 4.22484 9.17583C4.864 9.17583 5.32984 8.99166 5.514 8.67749C5.69817 8.36333 5.62234 7.86499 5.29734 7.31249C4.91817 6.65166 4.82067 5.87166 5.01567 5.13499C5.21067 4.38749 5.68734 3.76999 6.359 3.39083L8.23317 2.31833C9.45734 1.5925 11.0715 2.01499 11.8082 3.26083L11.9382 3.47749C12.5773 4.58249 13.4548 4.58249 14.094 3.47749L14.2132 3.27166C14.9498 2.01499 16.564 1.5925 17.799 2.32916L19.6623 3.40166C20.3232 3.78083 20.7998 4.39833 21.0057 5.14583C21.2007 5.89333 21.1032 6.6625 20.724 7.32333C20.4098 7.87583 20.3232 8.37416 20.5073 8.68833C20.6915 9.0025 21.1573 9.18666 21.7965 9.18666C23.3782 9.18666 24.6673 10.4758 24.6673 12.0575V13.9642C24.6673 15.5458 23.3782 16.835 21.7965 16.835C21.1573 16.835 20.6915 17.0192 20.5073 17.3333C20.3232 17.6475 20.399 18.1458 20.724 18.6983C21.1032 19.3592 21.2115 20.1392 21.0057 20.8758C20.8107 21.6233 20.334 22.2408 19.6623 22.62L17.7882 23.6925C17.3765 23.92 16.9323 24.0392 16.4773 24.0392ZM12.9998 20.0308C13.964 20.0308 14.8632 20.6375 15.4807 21.71L15.5998 21.9158C15.7298 22.1433 15.9465 22.3058 16.2065 22.3708C16.4665 22.4358 16.7265 22.4033 16.9432 22.2733L18.8173 21.19C19.099 21.0275 19.3157 20.7567 19.4023 20.4317C19.489 20.1067 19.4457 19.7708 19.2832 19.4892C18.6657 18.4275 18.5898 17.3333 19.0665 16.4992C19.5432 15.665 20.529 15.1883 21.764 15.1883C22.4573 15.1883 23.0098 14.6358 23.0098 13.9425V12.0358C23.0098 11.3533 22.4573 10.79 21.764 10.79C20.529 10.79 19.5432 10.3133 19.0665 9.47916C18.5898 8.64499 18.6657 7.55083 19.2832 6.48916C19.4457 6.20749 19.489 5.87166 19.4023 5.54666C19.3157 5.22166 19.1098 4.96166 18.8282 4.78833L16.954 3.71583C16.4882 3.43416 15.8707 3.59666 15.589 4.07333L15.4698 4.27916C14.8523 5.35166 13.9532 5.95833 12.989 5.95833C12.0248 5.95833 11.1257 5.35166 10.5082 4.27916L10.389 4.06249C10.1182 3.60749 9.5115 3.44499 9.04567 3.71583L7.1715 4.79916C6.88984 4.96166 6.67317 5.23249 6.5865 5.55749C6.49984 5.88249 6.54317 6.21833 6.70567 6.49999C7.32317 7.56166 7.399 8.65583 6.92234 9.48999C6.44567 10.3242 5.45984 10.8008 4.22484 10.8008C3.5315 10.8008 2.979 11.3533 2.979 12.0467V13.9533C2.979 14.6358 3.5315 15.1992 4.22484 15.1992C5.45984 15.1992 6.44567 15.6758 6.92234 16.51C7.399 17.3442 7.32317 18.4383 6.70567 19.5C6.54317 19.7817 6.49984 20.1175 6.5865 20.4425C6.67317 20.7675 6.879 21.0275 7.16067 21.2008L9.03484 22.2733C9.26234 22.4142 9.53317 22.4467 9.78234 22.3817C10.0423 22.3167 10.259 22.1433 10.3998 21.9158L10.519 21.71C11.1365 20.6483 12.0357 20.0308 12.9998 20.0308Z" fill="white"/>
</svg>
